REM DIRINDEX 1\2,1\3,1\4,1\5
REM DIRNAME cjc154,folder01,folder02,folder03,folder04
TITLE ""
FILE "CD2Track04.mp3" MP3
  TRACK 01 AUDIO
    TITLE "5:cjc154_1634"
    INDEX 01 00:00:00
  TRACK 02 AUDIO
    TITLE "0:"
    INDEX 01 00:01:28
  TRACK 03 AUDIO
    TITLE "2:cjc154_1635"
    INDEX 01 00:02:30
  TRACK 04 AUDIO
    TITLE "3:cjc154_1636"
    INDEX 01 00:04:54
  TRACK 05 AUDIO
    TITLE "2:cjc154_1637"
    INDEX 01 00:07:05
  TRACK 06 AUDIO
    TITLE "3:cjc154_1638"
    INDEX 01 00:09:04
  TRACK 07 AUDIO
    TITLE "2:cjc154_1639"
    INDEX 01 00:11:11
  TRACK 08 AUDIO
    TITLE "3:cjc154_1640"
    INDEX 01 00:12:36
  TRACK 09 AUDIO
    TITLE "2:cjc154_1641"
    INDEX 01 00:13:67
  TRACK 10 AUDIO
    TITLE "3:cjc154_1642"
    INDEX 01 00:15:03
  TRACK 11 AUDIO
    TITLE "2:cjc154_1643"
    INDEX 01 00:16:22
  TRACK 12 AUDIO
    TITLE "3:cjc154_1644"
    INDEX 01 00:17:55
  TRACK 13 AUDIO
    TITLE "2:cjc154_1645"
    INDEX 01 00:19:26
  TRACK 14 AUDIO
    TITLE "3:cjc154_1646"
    INDEX 01 00:21:08
  TRACK 15 AUDIO
    TITLE "2:cjc154_1647"
    INDEX 01 00:22:70
  TRACK 16 AUDIO
    TITLE "3:cjc154_1648"
    INDEX 01 00:25:11
  TRACK 17 AUDIO
    TITLE "2:cjc154_1649"
    INDEX 01 00:27:36
  TRACK 18 AUDIO
    TITLE "3:cjc154_1650"
    INDEX 01 00:28:64
  TRACK 19 AUDIO
    TITLE "2:cjc154_1651"
    INDEX 01 00:30:20
  TRACK 20 AUDIO
    TITLE "3:cjc154_1652"
    INDEX 01 00:32:29
  TRACK 21 AUDIO
    TITLE "2:cjc154_1653"
    INDEX 01 00:34:47
  TRACK 22 AUDIO
    TITLE "3:cjc154_1654"
    INDEX 01 00:36:27
  TRACK 23 AUDIO
    TITLE "2:cjc154_1655"
    INDEX 01 00:38:18
  TRACK 24 AUDIO
    TITLE "3:cjc154_1656"
    INDEX 01 00:40:44
  TRACK 25 AUDIO
    TITLE "2:cjc154_1657"
    INDEX 01 00:43:03
  TRACK 26 AUDIO
    TITLE "3:cjc154_1658"
    INDEX 01 00:45:06
  TRACK 27 AUDIO
    TITLE "2:cjc154_1659"
    INDEX 01 00:47:19
  TRACK 28 AUDIO
    TITLE "3:cjc154_1660"
    INDEX 01 00:48:71
  TRACK 29 AUDIO
    TITLE "2:cjc154_1661"
    INDEX 01 00:50:52
  TRACK 30 AUDIO
    TITLE "3:cjc154_1662"
    INDEX 01 00:52:14
  TRACK 31 AUDIO
    TITLE "2:cjc154_1663"
    INDEX 01 00:53:68
  TRACK 32 AUDIO
    TITLE "3:cjc154_1664"
    INDEX 01 00:56:12
  TRACK 33 AUDIO
    TITLE "2:cjc154_1665"
    INDEX 01 00:58:48
  TRACK 34 AUDIO
    TITLE "3:cjc154_1666"
    INDEX 01 01:00:70
  TRACK 35 AUDIO
    TITLE "2:cjc154_1667"
    INDEX 01 01:03:27
  TRACK 36 AUDIO
    TITLE "3:cjc154_1668"
    INDEX 01 01:05:09
  TRACK 37 AUDIO
    TITLE "2:cjc154_1669"
    INDEX 01 01:06:69
  TRACK 38 AUDIO
    TITLE "3:cjc154_1670"
    INDEX 01 01:09:40
  TRACK 39 AUDIO
    TITLE "2:cjc154_1671"
    INDEX 01 01:12:19
  TRACK 40 AUDIO
    TITLE "3:cjc154_1672"
    INDEX 01 01:13:49
  TRACK 41 AUDIO
    TITLE "2:cjc154_1673"
    INDEX 01 01:15:15
  TRACK 42 AUDIO
    TITLE "3:cjc154_1674"
    INDEX 01 01:16:42
  TRACK 43 AUDIO
    TITLE "2:cjc154_1675"
    INDEX 01 01:18:00
  TRACK 44 AUDIO
    TITLE "3:cjc154_1676"
    INDEX 01 01:20:04
  TRACK 45 AUDIO
    TITLE "2:cjc154_1677"
    INDEX 01 01:22:17
  TRACK 46 AUDIO
    TITLE "3:cjc154_1678"
    INDEX 01 01:24:08
  TRACK 47 AUDIO
    TITLE "2:cjc154_1679"
    INDEX 01 01:26:07
  TRACK 48 AUDIO
    TITLE "3:cjc154_1680"
    INDEX 01 01:27:44
  TRACK 49 AUDIO
    TITLE "2:cjc154_1681"
    INDEX 01 01:29:13
  TRACK 50 AUDIO
    TITLE "3:cjc154_1682"
    INDEX 01 01:30:58
  TRACK 51 AUDIO
    TITLE "2:cjc154_1683"
    INDEX 01 01:32:35
  TRACK 52 AUDIO
    TITLE "3:cjc154_1684"
    INDEX 01 01:34:34
  TRACK 53 AUDIO
    TITLE "2:cjc154_1685"
    INDEX 01 01:36:41
  TRACK 54 AUDIO
    TITLE "3:cjc154_1686"
    INDEX 01 01:38:69
  TRACK 55 AUDIO
    TITLE "2:cjc154_1687"
    INDEX 01 01:41:32
  TRACK 56 AUDIO
    TITLE "3:cjc154_1688"
    INDEX 01 01:43:60
  TRACK 57 AUDIO
    TITLE "2:cjc154_1689"
    INDEX 01 01:46:25
  TRACK 58 AUDIO
    TITLE "3:cjc154_1690"
    INDEX 01 01:47:62
  TRACK 59 AUDIO
    TITLE "2:cjc154_1691"
    INDEX 01 01:49:32
  TRACK 60 AUDIO
    TITLE "3:cjc154_1692"
    INDEX 01 01:51:46
  TRACK 61 AUDIO
    TITLE "2:cjc154_1693"
    INDEX 01 01:53:61
  TRACK 62 AUDIO
    TITLE "3:cjc154_1694"
    INDEX 01 01:55:22
  TRACK 63 AUDIO
    TITLE "2:cjc154_1695"
    INDEX 01 01:56:71
  TRACK 64 AUDIO
    TITLE "3:cjc154_1696"
    INDEX 01 01:58:42
  TRACK 65 AUDIO
    TITLE "2:cjc154_1697"
    INDEX 01 02:00:25
  TRACK 66 AUDIO
    TITLE "3:cjc154_1698"
    INDEX 01 02:01:60
  TRACK 67 AUDIO
    TITLE "2:cjc154_1699"
    INDEX 01 02:03:26
  TRACK 68 AUDIO
    TITLE "3:cjc154_1700"
    INDEX 01 02:04:70
  TRACK 69 AUDIO
    TITLE "2:cjc154_1701"
    INDEX 01 02:06:44
  TRACK 70 AUDIO
    TITLE "3:cjc154_1702"
    INDEX 01 02:09:11
  TRACK 71 AUDIO
    TITLE "2:cjc154_1703"
    INDEX 01 02:11:55
  TRACK 72 AUDIO
    TITLE "3:cjc154_1704"
    INDEX 01 02:13:09
  TRACK 73 AUDIO
    TITLE "2:cjc154_1705"
    INDEX 01 02:14:41
  TRACK 74 AUDIO
    TITLE "3:cjc154_1706"
    INDEX 01 02:16:26
  TRACK 75 AUDIO
    TITLE "2:cjc154_1707"
    INDEX 01 02:18:19
  TRACK 76 AUDIO
    TITLE "3:cjc154_1708"
    INDEX 01 02:21:51
  TRACK 77 AUDIO
    TITLE "2:cjc154_1709"
    INDEX 01 02:25:20
  TRACK 78 AUDIO
    TITLE "3:cjc154_1710"
    INDEX 01 02:27:26
  TRACK 79 AUDIO
    TITLE "2:cjc154_1711"
    INDEX 01 02:29:45
  TRACK 80 AUDIO
    TITLE "3:cjc154_1712"
    INDEX 01 02:30:72
  TRACK 81 AUDIO
    TITLE "2:cjc154_1713"
    INDEX 01 02:32:33
  TRACK 82 AUDIO
    TITLE "3:cjc154_1714"
    INDEX 01 02:33:72
  TRACK 83 AUDIO
    TITLE "2:cjc154_1715"
    INDEX 01 02:35:45
  TRACK 84 AUDIO
    TITLE "3:cjc154_1716"
    INDEX 01 02:37:25
  TRACK 85 AUDIO
    TITLE "2:cjc154_1717"
    INDEX 01 02:39:14
  TRACK 86 AUDIO
    TITLE "3:cjc154_1718"
    INDEX 01 02:41:30
  TRACK 87 AUDIO
    TITLE "2:cjc154_1719"
    INDEX 01 02:43:53
  TRACK 88 AUDIO
    TITLE "3:cjc154_1720"
    INDEX 01 02:45:46
  TRACK 89 AUDIO
    TITLE "2:cjc154_1721"
    INDEX 01 02:47:49
  TRACK 90 AUDIO
    TITLE "3:cjc154_1722"
    INDEX 01 02:49:00
  TRACK 91 AUDIO
    TITLE "2:cjc154_1723"
    INDEX 01 02:50:45
  TRACK 92 AUDIO
    TITLE "3:cjc154_1724"
    INDEX 01 02:52:12
  TRACK 93 AUDIO
    TITLE "2:cjc154_1725"
    INDEX 01 02:53:71
  TRACK 94 AUDIO
    TITLE "3:cjc154_1726"
    INDEX 01 02:56:26
  TRACK 95 AUDIO
    TITLE "2:cjc154_1727"
    INDEX 01 02:58:68
  TRACK 96 AUDIO
    TITLE "3:cjc154_1728"
    INDEX 01 03:00:71
  TRACK 97 AUDIO
    TITLE "2:cjc154_1729"
    INDEX 01 03:03:12
  TRACK 98 AUDIO
    TITLE "3:cjc154_1730"
    INDEX 01 03:06:17
  TRACK 99 AUDIO
    TITLE "2:cjc154_1731"
    INDEX 01 03:09:33
  TRACK 100 AUDIO
    TITLE "3:cjc154_1732"
    INDEX 01 03:11:26
  TRACK 101 AUDIO
    TITLE "2:cjc154_1733"
    INDEX 01 03:13:21
  TRACK 102 AUDIO
    TITLE "3:cjc154_1734"
    INDEX 01 03:15:00
  TRACK 103 AUDIO
    TITLE "2:cjc154_1735"
    INDEX 01 03:16:60
  TRACK 104 AUDIO
    TITLE "3:cjc154_1736"
    INDEX 01 03:19:05
  TRACK 105 AUDIO
    TITLE "2:cjc154_1737"
    INDEX 01 03:21:28
  TRACK 106 AUDIO
    TITLE "3:cjc154_1738"
    INDEX 01 03:23:42
  TRACK 107 AUDIO
    TITLE "2:cjc154_1739"
    INDEX 01 03:25:67
  TRACK 108 AUDIO
    TITLE "3:cjc154_1740"
    INDEX 01 03:27:62
  TRACK 109 AUDIO
    TITLE "2:cjc154_1741"
    INDEX 01 03:29:72
  TRACK 110 AUDIO
    TITLE "3:cjc154_1742"
    INDEX 01 03:31:38
  TRACK 111 AUDIO
    TITLE "2:cjc154_1743"
    INDEX 01 03:33:08
  TRACK 112 AUDIO
    TITLE "3:cjc154_1744"
    INDEX 01 03:34:56
  TRACK 113 AUDIO
    TITLE "2:cjc154_1745"
    INDEX 01 03:36:33
  TRACK 114 AUDIO
    TITLE "3:cjc154_1746"
    INDEX 01 03:38:69
  TRACK 115 AUDIO
    TITLE "2:cjc154_1747"
    INDEX 01 03:41:38
  TRACK 116 AUDIO
    TITLE "3:cjc154_1748"
    INDEX 01 03:43:08
  TRACK 117 AUDIO
    TITLE "2:cjc154_1749"
    INDEX 01 03:44:68
  TRACK 118 AUDIO
    TITLE "3:cjc154_1750"
    INDEX 01 03:46:30
  TRACK 119 AUDIO
    TITLE "2:cjc154_1751"
    INDEX 01 03:48:01
  TRACK 120 AUDIO
    TITLE "3:cjc154_1752"
    INDEX 01 03:50:08
  TRACK 121 AUDIO
    TITLE "2:cjc154_1753"
    INDEX 01 03:52:23
  TRACK 122 AUDIO
    TITLE "3:cjc154_1754"
    INDEX 01 03:54:41
  TRACK 123 AUDIO
    TITLE "2:cjc154_1755"
    INDEX 01 03:56:73
  TRACK 124 AUDIO
    TITLE "3:cjc154_1756"
    INDEX 01 03:58:35
  TRACK 125 AUDIO
    TITLE "2:cjc154_1757"
    INDEX 01 04:00:10
  TRACK 126 AUDIO
    TITLE "3:cjc154_1758"
    INDEX 01 04:01:65
  TRACK 127 AUDIO
    TITLE "2:cjc154_1759"
    INDEX 01 04:03:44
  TRACK 128 AUDIO
    TITLE "3:cjc154_1760"
    INDEX 01 04:05:33
  TRACK 129 AUDIO
    TITLE "2:cjc154_1761"
    INDEX 01 04:07:28
  TRACK 130 AUDIO
    TITLE "3:cjc154_1762"
    INDEX 01 04:08:74
  TRACK 131 AUDIO
    TITLE "2:cjc154_1763"
    INDEX 01 04:10:48
  TRACK 132 AUDIO
    TITLE "3:cjc154_1764"
    INDEX 01 04:13:66
  TRACK 133 AUDIO
    TITLE "2:cjc154_1765"
    INDEX 01 04:17:15
  TRACK 134 AUDIO
    TITLE "3:cjc154_1766"
    INDEX 01 04:19:64
  TRACK 135 AUDIO
    TITLE "2:cjc154_1767"
    INDEX 01 04:22:51
  TRACK 136 AUDIO
    TITLE "3:cjc154_1768"
    INDEX 01 04:24:24
  TRACK 137 AUDIO
    TITLE "2:cjc154_1769"
    INDEX 01 04:26:08
  TRACK 138 AUDIO
    TITLE "3:cjc154_1770"
    INDEX 01 04:27:39
  TRACK 139 AUDIO
    TITLE "2:cjc154_1771"
    INDEX 01 04:29:06
  TRACK 140 AUDIO
    TITLE "3:cjc154_1772"
    INDEX 01 04:30:49
  TRACK 141 AUDIO
    TITLE "2:cjc154_1773"
    INDEX 01 04:32:14
  TRACK 142 AUDIO
    TITLE "3:cjc154_1774"
    INDEX 01 04:33:57
  TRACK 143 AUDIO
    TITLE "2:cjc154_1775"
    INDEX 01 04:35:36
  TRACK 144 AUDIO
    TITLE "3:cjc154_1776"
    INDEX 01 04:36:71
  TRACK 145 AUDIO
    TITLE "2:cjc154_1777"
    INDEX 01 04:38:40
  TRACK 146 AUDIO
    TITLE "3:cjc154_1778"
    INDEX 01 04:40:14
  TRACK 147 AUDIO
    TITLE "2:cjc154_1779"
    INDEX 01 04:41:72
  TRACK 148 AUDIO
    TITLE "3:cjc154_1780"
    INDEX 01 04:43:55
  TRACK 149 AUDIO
    TITLE "2:cjc154_1781"
    INDEX 01 04:45:52
  TRACK 150 AUDIO
    TITLE "3:cjc154_1782"
    INDEX 01 04:47:43
  TRACK 151 AUDIO
    TITLE "2:cjc154_1783"
    INDEX 01 04:49:42
  TRACK 152 AUDIO
    TITLE "3:cjc154_1784"
    INDEX 01 04:51:31
  TRACK 153 AUDIO
    TITLE "2:cjc154_1785"
    INDEX 01 04:53:30
  TRACK 154 AUDIO
    TITLE "3:cjc154_1786"
    INDEX 01 04:55:37
  TRACK 155 AUDIO
    TITLE "2:cjc154_1787"
    INDEX 01 04:57:55
  TRACK 156 AUDIO
    TITLE "3:cjc154_1788"
    INDEX 01 04:59:27
  TRACK 157 AUDIO
    TITLE "2:cjc154_1789"
    INDEX 01 05:01:08
  TRACK 158 AUDIO
    TITLE "3:cjc154_1790"
    INDEX 01 05:02:53
  TRACK 159 AUDIO
    TITLE "2:cjc154_1791"
    INDEX 01 05:04:32
  TRACK 160 AUDIO
    TITLE "3:cjc154_1792"
    INDEX 01 05:05:72
  TRACK 161 AUDIO
    TITLE "2:cjc154_1793"
    INDEX 01 05:07:50
  TRACK 162 AUDIO
    TITLE "3:cjc154_1794"
    INDEX 01 05:09:15
  TRACK 163 AUDIO
    TITLE "2:cjc154_1795"
    INDEX 01 05:10:72
  TRACK 164 AUDIO
    TITLE "3:cjc154_1796"
    INDEX 01 05:13:41
  TRACK 165 AUDIO
    TITLE "2:cjc154_1797"
    INDEX 01 05:16:15
  TRACK 166 AUDIO
    TITLE "3:cjc154_1798"
    INDEX 01 05:17:74
  TRACK 167 AUDIO
    TITLE "2:cjc154_1799"
    INDEX 01 05:19:63
  TRACK 168 AUDIO
    TITLE "3:cjc154_1800"
    INDEX 01 05:22:02
  TRACK 169 AUDIO
    TITLE "2:cjc154_1801"
    INDEX 01 05:24:29
  TRACK 170 AUDIO
    TITLE "3:cjc154_1802"
    INDEX 01 05:25:63
  TRACK 171 AUDIO
    TITLE "2:cjc154_1803"
    INDEX 01 05:27:27
  TRACK 172 AUDIO
    TITLE "3:cjc154_1804"
    INDEX 01 05:29:55
  TRACK 173 AUDIO
    TITLE "2:cjc154_1805"
    INDEX 01 05:32:14
  TRACK 174 AUDIO
    TITLE "3:cjc154_1806"
    INDEX 01 05:33:53
  TRACK 175 AUDIO
    TITLE "2:cjc154_1807"
    INDEX 01 05:35:23
  TRACK 176 AUDIO
    TITLE "3:cjc154_1808"
    INDEX 01 05:37:06
  TRACK 177 AUDIO
    TITLE "2:cjc154_1809"
    INDEX 01 05:39:03
  TRACK 178 AUDIO
    TITLE "3:cjc154_1810"
    INDEX 01 05:41:60
  TRACK 179 AUDIO
    TITLE "2:cjc154_1811"
    INDEX 01 05:44:57
  TRACK 180 AUDIO
    TITLE "3:cjc154_1812"
    INDEX 01 05:47:26
  TRACK 181 AUDIO
    TITLE "2:cjc154_1813"
    INDEX 01 05:50:05
  TRACK 182 AUDIO
    TITLE "3:cjc154_1814"
    INDEX 01 05:51:39
  TRACK 183 AUDIO
    TITLE "2:cjc154_1815"
    INDEX 01 05:53:17
  TRACK 184 AUDIO
    TITLE "3:cjc154_1816"
    INDEX 01 05:55:29
  TRACK 185 AUDIO
    TITLE "2:cjc154_1817"
    INDEX 01 05:57:56
  TRACK 186 AUDIO
    TITLE "3:cjc154_1818"
    INDEX 01 05:59:70
  TRACK 187 AUDIO
    TITLE "2:cjc154_1819"
    INDEX 01 06:02:18
  TRACK 188 AUDIO
    TITLE "3:cjc154_1820"
    INDEX 01 06:04:32
  TRACK 189 AUDIO
    TITLE "2:cjc154_1821"
    INDEX 01 06:06:60
  TRACK 190 AUDIO
    TITLE "3:cjc154_1822"
    INDEX 01 06:08:44
  TRACK 191 AUDIO
    TITLE "2:cjc154_1823"
    INDEX 01 06:10:37
  TRACK 192 AUDIO
    TITLE "3:cjc154_1824"
    INDEX 01 06:12:39
  TRACK 193 AUDIO
    TITLE "2:cjc154_1825"
    INDEX 01 06:14:50
  TRACK 194 AUDIO
    TITLE "3:cjc154_1826"
    INDEX 01 06:16:24
  TRACK 195 AUDIO
    TITLE "2:cjc154_1827"
    INDEX 01 06:17:74
  TRACK 196 AUDIO
    TITLE "3:cjc154_1828"
    INDEX 01 06:19:41
  TRACK 197 AUDIO
    TITLE "2:cjc154_1829"
    INDEX 01 06:21:19
  TRACK 198 AUDIO
    TITLE "3:cjc154_1830"
    INDEX 01 06:23:49
  TRACK 199 AUDIO
    TITLE "2:cjc154_1831"
    INDEX 01 06:26:12
  TRACK 200 AUDIO
    TITLE "3:cjc154_1832"
    INDEX 01 06:27:19
  TRACK 201 AUDIO
    TITLE "2:cjc154_1833"
    INDEX 01 06:28:29
  TRACK 202 AUDIO
    TITLE "3:cjc154_1834"
    INDEX 01 06:30:20
  TRACK 203 AUDIO
    TITLE "2:cjc154_1835"
    INDEX 01 06:32:17
  TRACK 204 AUDIO
    TITLE "3:cjc154_1836"
    INDEX 01 06:34:16
  TRACK 205 AUDIO
    TITLE "2:cjc154_1837"
    INDEX 01 06:36:16
  TRACK 206 AUDIO
    TITLE "3:cjc154_1838"
    INDEX 01 06:38:17
  TRACK 207 AUDIO
    TITLE "2:cjc154_1839"
    INDEX 01 06:40:28
  TRACK 208 AUDIO
    TITLE "3:cjc154_1840"
    INDEX 01 06:42:64
  TRACK 209 AUDIO
    TITLE "2:cjc154_1841"
    INDEX 01 06:45:33
  TRACK 210 AUDIO
    TITLE "3:cjc154_1842"
    INDEX 01 06:47:50
  TRACK 211 AUDIO
    TITLE "2:cjc154_1843"
    INDEX 01 06:49:70
  TRACK 212 AUDIO
    TITLE "3:cjc154_1844"
    INDEX 01 06:51:67
  TRACK 213 AUDIO
    TITLE "2:cjc154_1845"
    INDEX 01 06:53:72
  TRACK 214 AUDIO
    TITLE "3:cjc154_1846"
    INDEX 01 06:56:56
  TRACK 215 AUDIO
    TITLE "2:cjc154_1847"
    INDEX 01 06:59:57
  TRACK 216 AUDIO
    TITLE "3:cjc154_1848"
    INDEX 01 07:02:16
  TRACK 217 AUDIO
    TITLE "2:cjc154_1849"
    INDEX 01 07:04:58
  TRACK 218 AUDIO
    TITLE "3:cjc154_1850"
    INDEX 01 07:06:72
  TRACK 219 AUDIO
    TITLE "2:cjc154_1851"
    INDEX 01 07:09:22
  TRACK 220 AUDIO
    TITLE "3:cjc154_1852"
    INDEX 01 07:11:30
  TRACK 221 AUDIO
    TITLE "2:cjc154_1853"
    INDEX 01 07:13:47
  TRACK 222 AUDIO
    TITLE "3:cjc154_1854"
    INDEX 01 07:15:05
  TRACK 223 AUDIO
    TITLE "2:cjc154_1855"
    INDEX 01 07:16:39
  TRACK 224 AUDIO
    TITLE "3:cjc154_1856"
    INDEX 01 07:18:36
  TRACK 225 AUDIO
    TITLE "0:"
    INDEX 01 07:20:33
